<mxfile host="app.diagrams.net" agent="Mozilla/5.0 (Windows NT 10.0; Win64; x64) AppleWebKit/537.36 (KHTML, like Gecko) Chrome/137.0.0.0 Safari/537.36" version="27.1.6">
  <diagram name="Page-1" id="6JbigkQtD5oib6Z55_C1">
    <mxGraphModel dx="4273" dy="2210" grid="1" gridSize="10" guides="1" tooltips="1" connect="1" arrows="1" fold="1" page="1" pageScale="1" pageWidth="800" pageHeight="500" math="0" shadow="0">
      <root>
        <mxCell id="0" />
        <mxCell id="1" parent="0" />
        <mxCell id="k9HfRmUis4oXZjniWQAY-6" value="&lt;p style=&quot;margin:0px;margin-top:4px;text-align:center;&quot;&gt;&lt;b&gt;&lt;i&gt;Input&lt;/i&gt;&lt;/b&gt;&lt;/p&gt;&lt;hr&gt;&lt;hr size=&quot;1&quot; style=&quot;border-style:solid;&quot;&gt;+readLines(fileName : String, lineStorage : LineStorage) : void&lt;div&gt;+addWords(lineNumber : int, parsedWords : List&amp;lt;String&amp;gt;, lineStorage : LineStorage) : void&lt;/div&gt;&lt;div&gt;&lt;i&gt;#setWordDelimiter(lineStorage : LineStorage) : void&lt;/i&gt;&lt;/div&gt;&lt;div&gt;&lt;i&gt;#parseWords(text : String) : List&amp;lt;String.&amp;gt;&lt;/i&gt;&lt;/div&gt;&lt;div&gt;&lt;br&gt;&lt;div&gt;&lt;br&gt;&lt;/div&gt;&lt;div&gt;&lt;br&gt;&lt;/div&gt;&lt;/div&gt;" style="verticalAlign=top;align=left;overflow=fill;html=1;whiteSpace=wrap;" parent="1" vertex="1">
          <mxGeometry x="670" y="985" width="310" height="130" as="geometry" />
        </mxCell>
        <mxCell id="k9HfRmUis4oXZjniWQAY-8" value="&lt;p style=&quot;margin:0px;margin-top:4px;text-align:center;&quot;&gt;&lt;i&gt;&amp;lt;&amp;lt;Interface&amp;gt;&amp;gt;&lt;/i&gt;&lt;br&gt;&lt;b&gt;Output&lt;/b&gt;&lt;/p&gt;&lt;hr&gt;&lt;i&gt;+writeLines(lines : List&amp;lt;String&amp;gt;) : void&lt;br&gt;&lt;/i&gt;&lt;hr&gt;&lt;div&gt;&lt;br&gt;&lt;/div&gt;" style="verticalAlign=top;align=left;overflow=fill;html=1;whiteSpace=wrap;" parent="1" vertex="1">
          <mxGeometry x="-420" y="660" width="220" height="80" as="geometry" />
        </mxCell>
        <mxCell id="k9HfRmUis4oXZjniWQAY-9" value="&lt;p style=&quot;margin:0px;margin-top:4px;text-align:center;&quot;&gt;TextInput&lt;/p&gt;&lt;hr&gt;&lt;hr&gt;&lt;div&gt;#setWordDelimiter(lineStorage : LineStorage) : void&lt;/div&gt;&lt;div&gt;#parseWords(text : String) : List&amp;lt;String.&amp;gt;&lt;/div&gt;" style="verticalAlign=top;align=left;overflow=fill;html=1;whiteSpace=wrap;" parent="1" vertex="1">
          <mxGeometry x="676.25" y="1180" width="297.5" height="80" as="geometry" />
        </mxCell>
        <mxCell id="k9HfRmUis4oXZjniWQAY-12" value="&lt;p style=&quot;margin:0px;margin-top:4px;text-align:center;&quot;&gt;ConsoleOutput&lt;/p&gt;&lt;hr&gt;&lt;hr&gt;+writeLines(lines : List&amp;lt;String&amp;gt;) : void&lt;div&gt;&lt;br&gt;&lt;/div&gt;" style="verticalAlign=top;align=left;overflow=fill;html=1;whiteSpace=wrap;" parent="1" vertex="1">
          <mxGeometry x="-415" y="790" width="210" height="70" as="geometry" />
        </mxCell>
        <mxCell id="k9HfRmUis4oXZjniWQAY-15" value="&lt;p style=&quot;margin:0px;margin-top:4px;text-align:center;&quot;&gt;&lt;i&gt;Sorter&lt;/i&gt;&lt;/p&gt;&lt;hr&gt;#sortedLines : List&amp;lt;String&amp;gt;&lt;div&gt;&lt;u&gt;#shifter : Shifter&lt;/u&gt;&lt;br&gt;&lt;hr&gt;+Sorter(shifter : Shifter) : void&lt;/div&gt;&lt;div&gt;+getSortedLines() : List&amp;lt;String&amp;gt;&lt;/div&gt;&lt;div&gt;-prependIndexIntoSortedLines() : void&lt;/div&gt;&lt;div&gt;&lt;i&gt;#generateSortedLines() : void&lt;/i&gt;&lt;/div&gt;" style="verticalAlign=top;align=left;overflow=fill;html=1;whiteSpace=wrap;" parent="1" vertex="1">
          <mxGeometry x="882.5" y="680" width="230" height="140" as="geometry" />
        </mxCell>
        <mxCell id="k9HfRmUis4oXZjniWQAY-16" value="&lt;p style=&quot;margin:0px;margin-top:4px;text-align:center;&quot;&gt;AlphabeticalSorter&lt;/p&gt;&lt;hr&gt;&lt;hr&gt;#generateSortedLines() : void&lt;div&gt;&lt;br&gt;&lt;/div&gt;" style="verticalAlign=top;align=left;overflow=fill;html=1;whiteSpace=wrap;" parent="1" vertex="1">
          <mxGeometry x="915" y="870" width="165" height="70" as="geometry" />
        </mxCell>
        <mxCell id="k9HfRmUis4oXZjniWQAY-17" value="" style="endArrow=block;dashed=1;endFill=0;endSize=12;html=1;rounded=0;exitX=0.5;exitY=0;exitDx=0;exitDy=0;entryX=0.5;entryY=1;entryDx=0;entryDy=0;" parent="1" source="k9HfRmUis4oXZjniWQAY-16" target="k9HfRmUis4oXZjniWQAY-15" edge="1">
          <mxGeometry width="160" relative="1" as="geometry">
            <mxPoint x="830" y="780" as="sourcePoint" />
            <mxPoint x="780" y="730" as="targetPoint" />
            <Array as="points" />
          </mxGeometry>
        </mxCell>
        <mxCell id="k9HfRmUis4oXZjniWQAY-18" value="&lt;p style=&quot;margin:0px;margin-top:4px;text-align:center;&quot;&gt;Shifter&lt;/p&gt;&lt;div&gt;&lt;hr&gt;&lt;u&gt;-lineStorage : LineStorage&lt;/u&gt;&lt;/div&gt;&lt;div&gt;&lt;u&gt;-shiftedLines : List&amp;lt;String&amp;gt;&lt;br&gt;&lt;/u&gt;&lt;hr&gt;+Shifter(lineStorage : LineStorage) : void&lt;/div&gt;&lt;div&gt;+getShiftedLines() : List&amp;lt;String&amp;gt;&lt;/div&gt;&lt;div&gt;-populateShiftedLines() : void&lt;/div&gt;" style="verticalAlign=top;align=left;overflow=fill;html=1;whiteSpace=wrap;" parent="1" vertex="1">
          <mxGeometry x="470" y="685" width="240" height="130" as="geometry" />
        </mxCell>
        <mxCell id="k9HfRmUis4oXZjniWQAY-20" value="&lt;p style=&quot;margin:0px;margin-top:4px;text-align:center;&quot;&gt;KeywordSearch&lt;/p&gt;&lt;hr&gt;&lt;u&gt;-lineStorage : LineStorage&lt;/u&gt;&lt;div&gt;&lt;u&gt;-keywords : Map&amp;lt;String, List&amp;lt;String&amp;gt;&amp;gt;&lt;/u&gt;&lt;br&gt;&lt;div&gt;&lt;hr&gt;+KeywordSearch(lineStorage : LineStorage) : void&lt;/div&gt;&lt;div&gt;+getKeywordLines(keyword : String) : List&amp;lt;String&amp;gt;&lt;/div&gt;&lt;div&gt;&lt;br&gt;&lt;/div&gt;&lt;/div&gt;" style="verticalAlign=top;align=left;overflow=fill;html=1;whiteSpace=wrap;" parent="1" vertex="1">
          <mxGeometry x="130" y="680" width="280" height="120" as="geometry" />
        </mxCell>
        <mxCell id="k9HfRmUis4oXZjniWQAY-21" value="&lt;p style=&quot;margin:0px;margin-top:4px;text-align:center;&quot;&gt;LineStorage&lt;/p&gt;&lt;hr&gt;&lt;u&gt;-lineWords : List&amp;lt;List&amp;lt;String&amp;gt;&amp;gt;&lt;/u&gt;&lt;div&gt;&lt;u&gt;-wordDelimiter : String&lt;/u&gt;&lt;br&gt;&lt;hr&gt;+LineStorage() : void&lt;/div&gt;&lt;div&gt;+getLineCount() : int&lt;/div&gt;&lt;div&gt;+addWord(lineNumber : int, word : String) : void&lt;/div&gt;&lt;div&gt;+getWordCount(lineNumber : int) : int&lt;/div&gt;&lt;div&gt;+getWord(lineNumber : int, wordIndex : int) : String&lt;/div&gt;&lt;div&gt;+setWordDelimiter(wordDelimiter : String) : void&lt;/div&gt;&lt;div&gt;+getLine(lineNumber : int) : String&lt;/div&gt;" style="verticalAlign=top;align=left;overflow=fill;html=1;whiteSpace=wrap;" parent="1" vertex="1">
          <mxGeometry x="240" y="960" width="337.5" height="180" as="geometry" />
        </mxCell>
        <mxCell id="k9HfRmUis4oXZjniWQAY-27" value="" style="endArrow=block;dashed=1;endFill=0;endSize=12;html=1;rounded=0;exitX=0.5;exitY=0;exitDx=0;exitDy=0;entryX=0.5;entryY=1;entryDx=0;entryDy=0;" parent="1" source="k9HfRmUis4oXZjniWQAY-12" target="k9HfRmUis4oXZjniWQAY-8" edge="1">
          <mxGeometry width="160" relative="1" as="geometry">
            <mxPoint x="380" y="1440" as="sourcePoint" />
            <mxPoint x="540" y="1440" as="targetPoint" />
          </mxGeometry>
        </mxCell>
        <mxCell id="k9HfRmUis4oXZjniWQAY-28" value="&lt;p style=&quot;margin:0px;margin-top:4px;text-align:center;&quot;&gt;Main&lt;/p&gt;&lt;hr&gt;&lt;hr&gt;&lt;u&gt;+main (args : String[]) : void&lt;br&gt;&lt;/u&gt;&lt;div&gt;&lt;u&gt;-run() : void&lt;/u&gt;&lt;/div&gt;" style="verticalAlign=top;align=left;overflow=fill;html=1;whiteSpace=wrap;" parent="1" vertex="1">
          <mxGeometry x="397.5" y="380" width="162.5" height="80" as="geometry" />
        </mxCell>
        <mxCell id="JFAIEYtNB2LarUCZhCXe-1" value="&lt;p style=&quot;margin:0px;margin-top:4px;text-align:center;&quot;&gt;&lt;i style=&quot;&quot;&gt;Indexer&lt;/i&gt;&lt;/p&gt;&lt;div&gt;&lt;hr&gt;&lt;u&gt;-lineStorage : LineStorage&lt;/u&gt;&lt;/div&gt;&lt;div&gt;&lt;u&gt;-indexedWords : List&amp;lt;String&amp;gt;&lt;/u&gt;&lt;br&gt;&lt;hr&gt;+Indexer(lineStorage : LineStorage) : void&lt;/div&gt;&lt;div&gt;+getIndexedWords : List&amp;lt;String&amp;gt;&lt;/div&gt;&lt;div&gt;&lt;br&gt;&lt;/div&gt;" style="verticalAlign=top;align=left;overflow=fill;html=1;whiteSpace=wrap;" parent="1" vertex="1">
          <mxGeometry x="-180" y="680" width="250" height="110" as="geometry" />
        </mxCell>
        <mxCell id="JFAIEYtNB2LarUCZhCXe-3" value="&lt;p style=&quot;margin:0px;margin-top:4px;text-align:center;&quot;&gt;GenericIndexer&lt;/p&gt;&lt;hr&gt;&lt;hr&gt;&lt;br&gt;&lt;div&gt;&lt;br&gt;&lt;/div&gt;" style="verticalAlign=top;align=left;overflow=fill;html=1;whiteSpace=wrap;" parent="1" vertex="1">
          <mxGeometry x="-120" y="880" width="130" height="60" as="geometry" />
        </mxCell>
        <mxCell id="JFAIEYtNB2LarUCZhCXe-5" value="Extends" style="endArrow=block;endSize=16;endFill=0;html=1;rounded=0;exitX=0.5;exitY=0;exitDx=0;exitDy=0;entryX=0.5;entryY=1;entryDx=0;entryDy=0;" parent="1" source="JFAIEYtNB2LarUCZhCXe-3" target="JFAIEYtNB2LarUCZhCXe-1" edge="1">
          <mxGeometry width="160" relative="1" as="geometry">
            <mxPoint x="-1235" y="1310" as="sourcePoint" />
            <mxPoint x="-965" y="775" as="targetPoint" />
          </mxGeometry>
        </mxCell>
        <mxCell id="rZ3ON5Htc5HRTa7LvLeY-14" value="Extends" style="endArrow=block;endSize=16;endFill=0;html=1;rounded=0;exitX=0.5;exitY=0;exitDx=0;exitDy=0;entryX=0.5;entryY=1;entryDx=0;entryDy=0;" parent="1" source="k9HfRmUis4oXZjniWQAY-9" target="k9HfRmUis4oXZjniWQAY-6" edge="1">
          <mxGeometry width="160" relative="1" as="geometry">
            <mxPoint x="520" y="1140" as="sourcePoint" />
            <mxPoint x="680" y="1140" as="targetPoint" />
          </mxGeometry>
        </mxCell>
        <mxCell id="rZ3ON5Htc5HRTa7LvLeY-24" value="Use" style="endArrow=open;endSize=12;dashed=1;html=1;rounded=0;exitX=0.5;exitY=1;exitDx=0;exitDy=0;entryX=0.5;entryY=0;entryDx=0;entryDy=0;" parent="1" source="k9HfRmUis4oXZjniWQAY-28" target="k9HfRmUis4oXZjniWQAY-20" edge="1">
          <mxGeometry width="160" relative="1" as="geometry">
            <mxPoint x="544" y="510" as="sourcePoint" />
            <mxPoint x="105.00000000000045" y="660" as="targetPoint" />
          </mxGeometry>
        </mxCell>
        <mxCell id="rZ3ON5Htc5HRTa7LvLeY-25" value="Use" style="endArrow=open;endSize=12;dashed=1;html=1;rounded=0;exitX=0.5;exitY=1;exitDx=0;exitDy=0;entryX=0.5;entryY=0;entryDx=0;entryDy=0;" parent="1" source="k9HfRmUis4oXZjniWQAY-28" target="k9HfRmUis4oXZjniWQAY-18" edge="1">
          <mxGeometry width="160" relative="1" as="geometry">
            <mxPoint x="544" y="500" as="sourcePoint" />
            <mxPoint x="420" y="700" as="targetPoint" />
          </mxGeometry>
        </mxCell>
        <mxCell id="rZ3ON5Htc5HRTa7LvLeY-27" value="Use" style="endArrow=open;endSize=12;dashed=1;html=1;rounded=0;exitX=0.5;exitY=1;exitDx=0;exitDy=0;entryX=0.5;entryY=0;entryDx=0;entryDy=0;" parent="1" source="k9HfRmUis4oXZjniWQAY-28" target="k9HfRmUis4oXZjniWQAY-15" edge="1">
          <mxGeometry width="160" relative="1" as="geometry">
            <mxPoint x="670" y="550" as="sourcePoint" />
            <mxPoint x="1077" y="740" as="targetPoint" />
          </mxGeometry>
        </mxCell>
        <mxCell id="cKuu_-djgyyRTVqPCM6f-5" value="" style="endArrow=diamondThin;endFill=0;endSize=24;html=1;rounded=0;exitX=0.5;exitY=0;exitDx=0;exitDy=0;entryX=0.5;entryY=1;entryDx=0;entryDy=0;" parent="1" source="k9HfRmUis4oXZjniWQAY-21" target="k9HfRmUis4oXZjniWQAY-18" edge="1">
          <mxGeometry width="160" relative="1" as="geometry">
            <mxPoint x="570" y="780" as="sourcePoint" />
            <mxPoint x="730" y="780" as="targetPoint" />
          </mxGeometry>
        </mxCell>
        <mxCell id="cKuu_-djgyyRTVqPCM6f-7" value="" style="endArrow=diamondThin;endFill=0;endSize=24;html=1;rounded=0;exitX=1;exitY=0.5;exitDx=0;exitDy=0;entryX=0;entryY=0.5;entryDx=0;entryDy=0;" parent="1" source="k9HfRmUis4oXZjniWQAY-18" target="k9HfRmUis4oXZjniWQAY-15" edge="1">
          <mxGeometry width="160" relative="1" as="geometry">
            <mxPoint x="570" y="1040" as="sourcePoint" />
            <mxPoint x="810" y="715" as="targetPoint" />
          </mxGeometry>
        </mxCell>
        <mxCell id="cKuu_-djgyyRTVqPCM6f-8" value="Use" style="endArrow=open;endSize=12;dashed=1;html=1;rounded=0;exitX=0;exitY=0.5;exitDx=0;exitDy=0;entryX=1;entryY=0.5;entryDx=0;entryDy=0;" parent="1" source="k9HfRmUis4oXZjniWQAY-6" target="k9HfRmUis4oXZjniWQAY-21" edge="1">
          <mxGeometry width="160" relative="1" as="geometry">
            <mxPoint x="440" y="880" as="sourcePoint" />
            <mxPoint x="600" y="880" as="targetPoint" />
          </mxGeometry>
        </mxCell>
        <mxCell id="cKuu_-djgyyRTVqPCM6f-9" value="Use" style="endArrow=open;endSize=12;dashed=1;html=1;rounded=0;exitX=0.5;exitY=1;exitDx=0;exitDy=0;" parent="1" source="k9HfRmUis4oXZjniWQAY-28" edge="1">
          <mxGeometry width="160" relative="1" as="geometry">
            <mxPoint x="250" y="830" as="sourcePoint" />
            <mxPoint x="409" y="960" as="targetPoint" />
          </mxGeometry>
        </mxCell>
        <mxCell id="FMbkumQulPBo_XJ0v1sx-3" value="Use" style="endArrow=open;endSize=12;dashed=1;html=1;rounded=0;fontSize=12;curved=1;entryX=0.5;entryY=0;entryDx=0;entryDy=0;exitX=0.5;exitY=1;exitDx=0;exitDy=0;" parent="1" source="k9HfRmUis4oXZjniWQAY-28" target="JFAIEYtNB2LarUCZhCXe-1" edge="1">
          <mxGeometry width="160" relative="1" as="geometry">
            <mxPoint x="320" y="480" as="sourcePoint" />
            <mxPoint x="570" y="820" as="targetPoint" />
          </mxGeometry>
        </mxCell>
        <mxCell id="FMbkumQulPBo_XJ0v1sx-5" value="Use" style="endArrow=open;endSize=12;dashed=1;html=1;rounded=0;fontSize=12;curved=1;entryX=0.5;entryY=0;entryDx=0;entryDy=0;exitX=0.5;exitY=1;exitDx=0;exitDy=0;" parent="1" source="k9HfRmUis4oXZjniWQAY-28" target="k9HfRmUis4oXZjniWQAY-8" edge="1">
          <mxGeometry width="160" relative="1" as="geometry">
            <mxPoint x="460" y="450" as="sourcePoint" />
            <mxPoint x="210" y="770" as="targetPoint" />
          </mxGeometry>
        </mxCell>
        <mxCell id="FMbkumQulPBo_XJ0v1sx-8" style="edgeStyle=none;curved=1;rounded=0;orthogonalLoop=1;jettySize=auto;html=1;exitX=0.5;exitY=0;exitDx=0;exitDy=0;fontSize=12;startSize=8;endSize=8;" parent="1" source="JFAIEYtNB2LarUCZhCXe-3" target="JFAIEYtNB2LarUCZhCXe-3" edge="1">
          <mxGeometry relative="1" as="geometry" />
        </mxCell>
        <mxCell id="FMbkumQulPBo_XJ0v1sx-9" value="" style="endArrow=diamondThin;endFill=0;endSize=24;html=1;rounded=0;fontSize=12;curved=1;entryX=0.5;entryY=1;entryDx=0;entryDy=0;exitX=0.5;exitY=0;exitDx=0;exitDy=0;" parent="1" source="k9HfRmUis4oXZjniWQAY-21" target="k9HfRmUis4oXZjniWQAY-20" edge="1">
          <mxGeometry width="160" relative="1" as="geometry">
            <mxPoint x="340" y="900" as="sourcePoint" />
            <mxPoint x="410" y="1100" as="targetPoint" />
          </mxGeometry>
        </mxCell>
        <mxCell id="eILL7YWSkd2Ixa6N1k25-1" value="" style="endArrow=diamondThin;endFill=0;endSize=24;html=1;rounded=0;fontSize=12;curved=1;entryX=0.5;entryY=1;entryDx=0;entryDy=0;exitX=0.5;exitY=0;exitDx=0;exitDy=0;" parent="1" source="k9HfRmUis4oXZjniWQAY-21" target="JFAIEYtNB2LarUCZhCXe-1" edge="1">
          <mxGeometry width="160" relative="1" as="geometry">
            <mxPoint x="454" y="1000" as="sourcePoint" />
            <mxPoint x="300" y="860" as="targetPoint" />
          </mxGeometry>
        </mxCell>
        <mxCell id="eILL7YWSkd2Ixa6N1k25-2" value="Use" style="endArrow=open;endSize=12;dashed=1;html=1;rounded=0;exitX=0.5;exitY=1;exitDx=0;exitDy=0;entryX=0.5;entryY=0;entryDx=0;entryDy=0;" parent="1" source="k9HfRmUis4oXZjniWQAY-28" target="k9HfRmUis4oXZjniWQAY-6" edge="1">
          <mxGeometry width="160" relative="1" as="geometry">
            <mxPoint x="482" y="560" as="sourcePoint" />
            <mxPoint x="440" y="1070" as="targetPoint" />
            <Array as="points">
              <mxPoint x="770" y="670" />
            </Array>
          </mxGeometry>
        </mxCell>
      </root>
    </mxGraphModel>
  </diagram>
</mxfile>
